<?xml version="1.0" encoding="utf-8"?>
<!-- Generator: Adobe Illustrator 19.1.0, SVG Export Plug-In . SVG Version: 6.00 Build 0)  -->
<svg version="1.1" id="Layer_1" xmlns="http://www.w3.org/2000/svg" xmlns:xlink="http://www.w3.org/1999/xlink" x="0px" y="0px"
	 viewBox="0 0 960 560" style="enable-background:new 0 0 960 560;" xml:space="preserve">
<style type="text/css">
	.st0{fill:#FFFFFF;stroke:#000000;stroke-miterlimit:10;}
	.st1{fill:none;stroke:#000000;stroke-miterlimit:10;}
</style>
<path class="st0" d="M355.1,303.1h-69.8c-6.6,0-12-5.4-12-12v-97.7c0-6.6,5.4-12,12-12h69.8c6.6,0,12,5.4,12,12v97.7
	C367.1,297.7,361.7,303.1,355.1,303.1z"/>
<path class="st0" d="M373.8,255.3L373.8,255.3c-4.6,0-8.4-3.8-8.4-8.4v-51.3c0-4.6,3.8-8.4,8.4-8.4h0c4.6,0,8.4,3.8,8.4,8.4v51.3
	C382.2,251.5,378.4,255.3,373.8,255.3z"/>
<path class="st0" d="M264.3,255.3h3.2c3.4,0,6.2-2.8,6.2-6.2v-55.8c0-3.4-2.8-6.2-6.2-6.2h-3.2c-3.4,0-6.2,2.8-6.2,6.2v55.8
	C258.2,252.5,260.9,255.3,264.3,255.3z"/>
<path class="st1" d="M379.7,252.8c0,8.9,5.1,16.2,11.3,16.2"/>
<path class="st1" d="M391,269c0-8.9-5.1-16.2-11.3-16.2"/>
<ellipse class="st1" cx="262.8" cy="264.6" rx="3.1" ry="9.3"/>
<ellipse class="st1" cx="323.3" cy="314.4" rx="60.4" ry="11.5"/>
<path class="st1" d="M283.5,176.5c0-24,15.6-44.6,34.9-44.6s34.9,20.6,34.9,44.6H283.5z"/>
<ellipse class="st1" cx="305.2" cy="152.1" rx="4.9" ry="6.2"/>
<ellipse class="st1" cx="331.7" cy="152.1" rx="4.9" ry="6.2"/>
<path class="st1" d="M336.8,140.2c-0.3,3.1-2.8,5.6-5.4,5.4c1.3,0.3,5.3,0.3,6.6-0.1s2.4-1.7,2.1-3"/>
<rect x="313.5" y="176.5" class="st1" width="13.4" height="4.8"/>
<path class="st1" d="M304.5,144.9c-2.6,0.8-5.5-2.2-4.6-4.8"/>
<path class="st1" d="M303,145.9c-3.1,0.5-6.4-1.5-7.4-4.5"/>
</svg>
