<?xml version="1.0" encoding="utf-8"?>
<!-- Generator: Adobe Illustrator 19.1.0, SVG Export Plug-In . SVG Version: 6.00 Build 0)  -->
<svg version="1.1" id="Layer_1" xmlns="http://www.w3.org/2000/svg" xmlns:xlink="http://www.w3.org/1999/xlink" x="0px" y="0px"
	 viewBox="0 0 960 560" style="enable-background:new 0 0 960 560;" xml:space="preserve">
<style type="text/css">
	.st0{fill:none;stroke:#000000;stroke-miterlimit:10;}
	.st1{fill:#A9FF96;stroke:#000000;stroke-miterlimit:10;}
	.st2{fill:#B1F1FF;stroke:#FF91F6;stroke-miterlimit:10;}
	.st3{fill:#AAADAD;stroke:#000000;stroke-miterlimit:10;}
	.st4{fill:#9A9E9E;stroke:#000000;stroke-miterlimit:10;}
	.st5{stroke:#000000;stroke-miterlimit:10;}
	.st6{fill:#F5FFAE;stroke:#000000;stroke-miterlimit:10;}
	.st7{fill:#131600;stroke:#000000;stroke-miterlimit:10;}
	.st8{fill:#BA8F00;stroke:#000000;stroke-miterlimit:10;}
	.st9{fill:#0D1200;stroke:#000000;stroke-miterlimit:10;}
	.st10{fill:#FFDDDA;stroke:#FF96F8;stroke-width:2;stroke-miterlimit:10;}
	.st11{stroke:#000000;stroke-width:2;stroke-miterlimit:10;}
	.st12{fill:#FFDDDA;stroke:#000000;stroke-miterlimit:10;}
	.st13{fill:none;stroke:#FF96F8;stroke-width:2;stroke-miterlimit:10;}
</style>
<path class="st0" d="M742.9,65.6C676.5,48.6,621.4,50.2,581,56C311.1,95.1,185,403.2,173.9,431.6"/>
<path class="st1" d="M959.2,560H0.8V458.2c85.7-15.7,172.1-31.5,259.2-29.5c59.1,1.3,117.6,10.9,176.5,16
	c121.9,10.7,245.5,2.6,365-23.9c52.3-11.6,108.8-26.4,157.7-4.6"/>
<path class="st2" d="M959.2,0H0.8v458.2l0,0c85.7-15.7,172.1-31.5,259.2-29.5c59.1,1.3,117.6,10.9,176.5,16
	c121.9,10.7,245.5,2.6,365-23.9c52.3-11.6,108.8-26.4,157.7-4.6"/>
<g>
	<path class="st3" d="M180,411.5H85V319c-3.7-32.1,19.8-58.7,45-59.9c26.6-1.2,53.6,25.9,49.9,59.9C180,349.8,180,380.7,180,411.5z"
		/>
	<polygon class="st3" points="207.9,372.3 195.4,376 179.4,320.1 191.8,316.4 	"/>
	<path class="st3" d="M73.7,387.5h8.2c1.7,0,3.2-1.4,3.2-3.2v-62.1c0-1.7-1.4-3.2-3.2-3.2h-8.2c-1.7,0-3.2,1.4-3.2,3.2v62.1
		C70.5,386.1,71.9,387.5,73.7,387.5z"/>
	<path class="st3" d="M199.7,374.7c-3.5,14.2,0,21.5,0,21.5l18-3.6l6.5-7.1l-13.1-9.5l-3.2-3.7"/>
	<polyline class="st4" points="81.9,387.5 77.7,402.1 63.3,396.2 73.7,387.5 	"/>
	<ellipse class="st3" cx="108.6" cy="426.5" rx="13.6" ry="14.9"/>
	<ellipse class="st3" cx="160.3" cy="426.5" rx="13.6" ry="14.9"/>
	<ellipse class="st5" cx="113.6" cy="286.4" rx="5" ry="7.7"/>
	<ellipse class="st5" cx="145.6" cy="286.4" rx="5.4" ry="7.7"/>
	<line class="st0" x1="85" y1="319" x2="179.4" y2="320.1"/>
</g>
<ellipse class="st6" cx="799" cy="80" rx="56" ry="51"/>
<rect x="217" y="319" transform="matrix(0.9731 0.2306 -0.2306 0.9731 86.5374 -41.7916)" class="st7" width="10.1" height="60.6"/>
<ellipse class="st8" cx="233.6" cy="294.6" rx="22.4" ry="24.4"/>
<rect x="677.9" y="322.8" transform="matrix(0.9795 0.2013 -0.2013 0.9795 85.08 -130.1815)" class="st9" width="9.4" height="60.9"/>
<ellipse class="st8" cx="695.6" cy="300.8" rx="20.4" ry="23.2"/>
<line class="st0" x1="233.6" y1="275.3" x2="394.8" y2="132"/>
<line class="st0" x1="394.8" y1="132" x2="693.4" y2="294.1"/>
<line class="st0" x1="233.6" y1="275.3" x2="389" y2="237"/>
<g>
	<path class="st10" d="M641.7,427.4h-69.8c-6.6,0-12-5.4-12-12v-97.7c0-6.6,5.4-12,12-12h69.8c6.6,0,12,5.4,12,12v97.7
		C653.7,422,648.3,427.4,641.7,427.4z"/>
	<path class="st10" d="M660.4,379.6L660.4,379.6c-4.6,0-8.4-3.8-8.4-8.4v-51.3c0-4.6,3.8-8.4,8.4-8.4l0,0c4.6,0,8.4,3.8,8.4,8.4
		v51.3C668.8,375.8,665,379.6,660.4,379.6z"/>
	<path class="st10" d="M550.9,379.6h3.2c3.4,0,6.2-2.8,6.2-6.2v-55.8c0-3.4-2.8-6.2-6.2-6.2h-3.2c-3.4,0-6.2,2.8-6.2,6.2v55.8
		C544.8,376.8,547.5,379.6,550.9,379.6z"/>
	<path class="st10" d="M666.3,377.1c0,8.9,5.1,16.2,11.3,16.2"/>
	<path class="st10" d="M677.6,393.3c0-8.9-5.1-16.2-11.3-16.2"/>
	<ellipse class="st10" cx="549.4" cy="388.9" rx="3.1" ry="9.3"/>
	<ellipse class="st10" cx="609.9" cy="438.7" rx="60.4" ry="11.5"/>
	<path class="st10" d="M570.1,300.8c0-24,15.6-44.6,34.9-44.6s34.9,20.6,34.9,44.6H570.1z"/>
	<ellipse class="st11" cx="591.8" cy="276.4" rx="4.9" ry="6.2"/>
	<ellipse class="st5" cx="618.3" cy="276.4" rx="4.9" ry="6.2"/>
	<path class="st12" d="M623.4,264.5c-0.3,3.1-2.8,5.6-5.4,5.4c1.3,0.3,5.3,0.3,6.6-0.1s2.4-1.7,2.1-3"/>
	<rect x="600.1" y="300.8" class="st10" width="13.4" height="4.8"/>
	<path class="st12" d="M591.1,269.2c-2.6,0.8-5.5-2.2-4.6-4.8"/>
	<path class="st12" d="M589.6,270.2c-3.1,0.5-6.4-1.5-7.4-4.5"/>
	<line class="st13" x1="389" y1="237" x2="693.4" y2="294.1"/>
</g>
</svg>
