<?xml version="1.0" encoding="utf-8"?>
<!-- Generator: Adobe Illustrator 19.1.0, SVG Export Plug-In . SVG Version: 6.00 Build 0)  -->
<svg version="1.1" id="Layer_1" xmlns="http://www.w3.org/2000/svg" xmlns:xlink="http://www.w3.org/1999/xlink" x="0px" y="0px"
	 viewBox="0 0 960 560" style="enable-background:new 0 0 960 560;" xml:space="preserve">
<style type="text/css">
	.st0{fill:none;stroke:#000000;stroke-miterlimit:10;}
	.st1{fill:#FFFFFF;stroke:#000000;stroke-miterlimit:10;}
</style>
<path class="st0" d="M0.8,458.2c85.7-15.7,172.1-31.5,259.2-29.5c59.1,1.3,117.6,10.9,176.5,16c121.9,10.7,245.5,2.6,365-23.9
	c52.3-11.6,108.8-26.4,157.7-4.6"/>
<g>
	<g>
		<path class="st0" d="M168.5,503.5"/>
	</g>
</g>
<g>
	<g>
		<path class="st0" d="M224.2,499"/>
	</g>
</g>
<g>
	<line class="st0" x1="85" y1="319" x2="180" y2="319"/>
	<path class="st0" d="M180,411.5H85V319c-3.7-32.1,19.8-58.7,45-59.9c26.6-1.2,53.6,25.9,49.9,59.9C180,349.8,180,380.7,180,411.5z"
		/>
	<path class="st0" d="M212,313.8"/>
	<polygon class="st0" points="207.9,372.3 195.4,376 179.4,320.1 191.8,316.4 	"/>
	<path class="st0" d="M73.7,387.5h8.2c1.7,0,3.2-1.4,3.2-3.2v-62.1c0-1.7-1.4-3.2-3.2-3.2h-8.2c-1.7,0-3.2,1.4-3.2,3.2v62.1
		C70.5,386.1,71.9,387.5,73.7,387.5z"/>
	<path class="st0" d="M199.7,374.7c-3.5,14.2,0,21.5,0,21.5l18-3.6l6.5-7.1l-13.1-9.5l-3.2-3.7"/>
	<line class="st0" x1="73.7" y1="387.5" x2="63.3" y2="396.2"/>
	<line class="st0" x1="63.3" y1="396.2" x2="77.7" y2="402.1"/>
	<line class="st0" x1="77.7" y1="402.1" x2="81.9" y2="387.5"/>
	<ellipse class="st0" cx="108.6" cy="426.5" rx="13.6" ry="14.9"/>
	<ellipse class="st0" cx="160.3" cy="426.5" rx="13.6" ry="14.9"/>
	<ellipse class="st0" cx="113.6" cy="286.4" rx="5" ry="7.7"/>
	<ellipse class="st0" cx="145.6" cy="286.4" rx="5.4" ry="7.7"/>
</g>
<g>
	<path class="st1" d="M679.2,372.9c0,39.2-13.4,71.1-30,71.1c-16.6,0-30-31.8-30-71.1c0-10.4,1-20.3,2.6-29.2
		c4.7-24.7,15.2-41.8,27.4-41.8C665.7,301.9,679.2,333.8,679.2,372.9z"/>
	<line class="st0" x1="643.9" y1="303" x2="629.3" y2="248.3"/>
	<line class="st0" x1="654.5" y1="303" x2="666.4" y2="264"/>
	<ellipse class="st0" cx="639" cy="328.4" rx="4.9" ry="10.8"/>
	<ellipse class="st0" cx="659.1" cy="328.4" rx="4.7" ry="10.8"/>
	<line class="st0" x1="673.1" y1="330.2" x2="683" y2="320.5"/>
	<line class="st0" x1="683" y1="320.5" x2="685.5" y2="303"/>
	<line class="st0" x1="624.5" y1="332.3" x2="614.4" y2="317.6"/>
	<line class="st0" x1="614.4" y1="317.6" x2="624.5" y2="332.3"/>
	<line class="st0" x1="614.5" y1="317.9" x2="614.5" y2="302.9"/>
	<line class="st0" x1="678.1" y1="353.8" x2="698.8" y2="341.8"/>
	<line class="st0" x1="698.8" y1="341.8" x2="719.2" y2="367.8"/>
	<line class="st0" x1="719.2" y1="367.8" x2="724.3" y2="364.8"/>
	<line class="st0" x1="619.5" y1="353.8" x2="599.1" y2="341.8"/>
	<line class="st0" x1="599.1" y1="341.8" x2="576.6" y2="367.8"/>
	<line class="st0" x1="576.6" y1="367.8" x2="574" y2="364.8"/>
	<line class="st0" x1="679.1" y1="367.8" x2="679.2" y2="372.9"/>
	<line class="st0" x1="679.2" y1="372.9" x2="685.5" y2="380.5"/>
	<line class="st0" x1="685.5" y1="380.5" x2="688.4" y2="417.4"/>
	<line class="st0" x1="688.4" y1="417.4" x2="703" y2="427.2"/>
	<line class="st0" x1="703" y1="427.2" x2="706" y2="422.3"/>
	<line class="st0" x1="619.1" y1="372.9" x2="614.4" y2="380.5"/>
	<line class="st0" x1="614.4" y1="380.5" x2="606.3" y2="417.4"/>
	<line class="st0" x1="606.3" y1="417.4" x2="594" y2="427.2"/>
	<line class="st0" x1="594" y1="427.2" x2="591" y2="422.3"/>
	<path class="st0" d="M621.8,343.8c2.2,2.2,12.6,12.1,28,11.3c14.8-0.8,24.2-10.8,26.3-13.3"/>
</g>
</svg>
