<?xml version="1.0" encoding="utf-8"?>
<!-- Generator: Adobe Illustrator 19.1.0, SVG Export Plug-In . SVG Version: 6.00 Build 0)  -->
<svg version="1.1" id="Layer_1" xmlns="http://www.w3.org/2000/svg" xmlns:xlink="http://www.w3.org/1999/xlink" x="0px" y="0px"
	 viewBox="0 0 960 560" style="enable-background:new 0 0 960 560;" xml:space="preserve">
<style type="text/css">
	.st0{fill:none;stroke:#000000;stroke-miterlimit:10;}
	.st1{fill:#A9FF96;stroke:#A9FF96;stroke-miterlimit:10;}
	.st2{fill:#B1F1FF;stroke:#B1F1FF;stroke-width:2;stroke-miterlimit:10;}
	.st3{fill:#AAADAD;stroke:#848484;stroke-width:2;stroke-miterlimit:10;}
	.st4{fill:#9A9E9E;stroke:#848484;stroke-width:2;stroke-miterlimit:10;}
	.st5{stroke:#848484;stroke-width:2;stroke-miterlimit:10;}
	.st6{fill:none;stroke:#848484;stroke-width:2;stroke-miterlimit:10;}
	.st7{fill:#F5FF76;stroke:#F5FF76;stroke-miterlimit:10;}
	.st8{fill:#AD9F00;stroke:#2D5500;stroke-width:2;stroke-miterlimit:10;}
	.st9{fill:#160B00;stroke:#2D5500;stroke-width:2;stroke-miterlimit:10;}
	.st10{fill:#0D0A00;stroke:#2D5500;stroke-width:2;stroke-miterlimit:10;}
	.st11{fill:#AF7AFF;}
	.st12{fill:#FFD188;}
	.st13{fill:none;stroke:#15009A;stroke-miterlimit:10;}
	.st14{fill:#FF695B;}
	.st15{fill:#565CFF;}
</style>
<path class="st0" d="M742.9,65.6C676.5,48.6,621.4,50.2,581,56C311.1,95.1,185,403.2,173.9,431.6"/>
<path class="st1" d="M959.2,560H0.8V458.2c85.7-15.7,172.1-31.5,259.2-29.5c59.1,1.3,117.6,10.9,176.5,16
	c121.9,10.7,245.5,2.6,365-23.9c52.3-11.6,108.8-26.4,157.7-4.6"/>
<path class="st2" d="M958-1.2H-0.4V457l0,0c85.7-15.7,172.1-31.5,259.2-29.5c59.1,1.3,117.6,10.9,176.5,16
	c121.9,10.7,245.5,2.6,365-23.9C852.6,408,909.1,393.2,958,415"/>
<g>
	<path class="st3" d="M180,411.5H85V319c-3.7-32.1,19.8-58.7,45-59.9c26.6-1.2,53.6,25.9,49.9,59.9C180,349.8,180,380.7,180,411.5z"
		/>
	<polygon class="st3" points="207.9,372.3 195.4,376 179.4,320.1 191.8,316.4 	"/>
	<path class="st3" d="M73.7,387.5h8.2c1.7,0,3.2-1.4,3.2-3.2v-62.1c0-1.7-1.4-3.2-3.2-3.2h-8.2c-1.7,0-3.2,1.4-3.2,3.2v62.1
		C70.5,386.1,71.9,387.5,73.7,387.5z"/>
	<path class="st3" d="M199.7,374.7c-3.5,14.2,0,21.5,0,21.5l18-3.6l6.5-7.1l-13.1-9.5l-3.2-3.7"/>
	<polyline class="st4" points="81.9,387.5 77.7,402.1 63.3,396.2 73.7,387.5 	"/>
	<ellipse class="st3" cx="108.6" cy="426.5" rx="13.6" ry="14.9"/>
	<ellipse class="st3" cx="160.3" cy="426.5" rx="13.6" ry="14.9"/>
	<ellipse class="st5" cx="113.6" cy="286.4" rx="5" ry="7.7"/>
	<ellipse class="st5" cx="145.6" cy="286.4" rx="5.4" ry="7.7"/>
	<line class="st6" x1="85" y1="319" x2="179.4" y2="320.1"/>
</g>
<ellipse class="st7" cx="799" cy="80" rx="56" ry="51"/>
<g>
	<path class="st8" d="M633.3,406.1c0-0.1,0-0.1,0-0.2l-0.5,12.7C633.3,414.5,633.7,410.2,633.3,406.1z"/>
	<path class="st8" d="M669,443.5c-3.1-11,2.7-12.6,3.7-23.5s-5.4-20.3-3.5-31.3c1.8-10.2,5.7-18.6,1.7-28.9
		c-3.1-8.2-8.9-15.5-8.1-25c0.8-9.3,5.2-12.6,7.5-21.4l0,0c7.1,6.2,16.2,8.8,24.9,8s17.2-4.8,24.4-10.8c5.2-4.2,10-9.5,15.9-12.3
		s13.6-2.3,17.5,3.7c3.5-5.1,8-9.6,13.3-11.6c1.2-0.4,2.8-1.2,2.6-2.7l0.1,2.6c-3.9,3.5-7.9,7.7-10.9,12.3c-9.9-0.7-20.3-1.2-29.1,4
		c-6.4,3.8-11.4,10.7-17.6,15.3c-13.4,10.1-32.5,8.2-44.2-4.4l0.7,1.5c1.9-2.5,2.5-6.4,1.5-9.5c-0.3-1.1-0.8-2-1.3-3
		c-1.7-3.4-3.9-6.6-7-7.8l0.1-0.2c-1.7-1.3-3.3-2.8-4.6-4.6l-0.1-0.4c1.2,0.3,2.2-0.4,3.2-1.1c3.5-2.4,6.7-5.2,9.9-8.1
		c1.6-1.5,3.1-3.1,4.7-4.7c1.6-1.7,2-2.8,2.7-5.1c0.2-0.7,0.5-1.5,0.2-2.3l-0.6,3.6l1-39.3l-0.1-0.1c0.6,0.4,1.5,0.2,2.1-0.3
		s1-1.2,1.5-1.9c0.9-1.4,2-2.7,3.3-3.7c1.4-1,2.7-1.9,3.8-3.2c0.8-1.1,1.4-2.6,1.9-4c1.6-4.6,2.5-9.6,2.7-14.6c0-1.5,0-3,0.3-4.4
		c0.2-1.6,0.9-3,1.6-4.4c1.4-3.1,3.3-6.3,6.1-7.6c2.1-1,4.5-0.9,6.7-0.7l-6.8-4.8c-3.8,2.1-8.7-0.1-12.1,2.8
		c-1.7,1.5-2.6,3.9-2.8,6.3c-0.1,2,0.1,3.9-0.2,5.8c-0.4,2.9-1.9,5-3.1,7.4c-1.3,2.5-2.3,5.1-4,7c-1.2,1.3-2.6,2.3-3.9,3.5
		c-4,4.1-5.3,10.8-5.5,17.2l-5.4-0.4c-0.3-4.5-0.6-9.6,1.6-13.4c0.8-1.4,2-2.5,2.9-3.9c2.1-3,3-7,3.2-10.9c0.2-3.8-0.4-7.8-0.9-11.6
		c-0.2-1.6-0.5-3.1-0.2-4.6s1.2-3.1,2.4-3.5l-4.7-6c0.1,2-1.8,3.3-3.4,3.9c-1.7,0.6-3.6,1.2-4.4,3c-0.4,0.9-0.3,2.1-0.3,3.1
		c0.3,12.9-1.2,26.1-4.5,38.5l-6.7,5.1l-2.3-0.2c1.4-3.9,4-7.2,6.2-10.5c1.8-2.7,3.2-5.3,4.7-8.1c0.5-0.9,0.9-1.8,1.1-2.8
		c0.2-1.5-0.2-3.2-1-4.5c-0.7-1.3-1.7-2.4-2.8-3.4c-0.6-0.5-1.2-1.1-1.5-1.9c-0.3-0.7-0.3-1.6-0.3-2.4c0.1-4.6,0.3-9.4,0.5-14
		l-18.6-6c-1.1,2-0.4,4.6,0.5,6.7c2.4,5.7,5.7,11,9.7,15.4c0.4,0.5,0.8,0.9,0.9,1.5c0.1,0.8-0.3,1.5-0.8,2.1
		c-4.6,6.8-4.3,16.3-3.8,25l-4.1,0.5c0-2.3-0.4-4.4-1.2-6.4c-0.4-1-0.9-2-1-3c-0.2-1,0.2-2.2,0.5-3.2c0.9-3,1.4-6.2,1.3-9.4
		c-0.1-3.3-1.2-6.4-3.1-8.5c-1.5-1.8-3.6-2.7-5.7-3.6c-2-1-4.2-1.8-5.8-3.5s-2.8-4.4-2.3-6.9l-3.5,5.4c-0.2,3.5-0.4,7.4,1.5,10.1
		c1.6,2.4,4.7,3.3,6.4,5.7c1.9,2.4,2.3,6.1,2.2,9.5c-0.1,3.3-0.5,6.8,0.2,10.1c0.5,2.4,1.8,5.2,0.8,7.5l0.5-0.6V280
		c0.7,0.5,1.2,1.3,1.5,2.4c1,3.7,2.1,6.7,5.3,7.9c2.5,1,3.1,3.9,2.2,6.3v0.3c0.3-0.2,0.5-0.3,0.8-0.5l0.1-0.2l-0.9,0.6
		c-0.1,0.1-0.2,0.1-0.2,0.2c-0.5,0.9-1.2,1.5-1.9,1.7c-5.5,6.2-6.6,17.9-6,27.8c0.7,11.4,3.1,22.7,1.9,34
		c-0.9,8.7-3.9,17.1-2.8,25.7c0.9,6.8,4.4,12.9,5.2,19.8l-0.4,12.7c-1,8.2-1.3,29.5-0.8,22.4"/>
	<ellipse class="st9" cx="639.4" cy="255.6" rx="5" ry="9.6"/>
	<ellipse class="st10" cx="665.9" cy="255.9" rx="4.8" ry="9.9"/>
	<path class="st8" d="M628.9,310c-7.4-3.6-15.9,0.8-22,7s-10.9,14.1-17.6,19.2c-1.5,1.2-3.2,2.2-5,2.3c-3.3,0.2-6-2.3-8.7-4.3
		c-4.7-3.6-10.2-5.7-15.7-6.4c-4.9-0.6-6.9,1.7-10.8,3.8c-3.4,1.8-5.2-0.5-8.3-1.5c-2.6-0.7-5.2-0.5-7.8,0.3
		c5.2,0.5,10.7,2.4,15.5,4.9l-0.4-0.5c1.2-0.1,2.1-0.1,3.3-0.2c0.1-2.9,2.6-5.1,5-5.3s4.9,1.2,6.9,2.9c5.6,4.6,9.9,12,16.4,14.6
		c5.4,2.1,11.6,0.5,16.6-2.9c5-3.3,9-8.4,13-13.3c2-2.6,4.1-5.2,5.7-8.1c1-1.6,1.7-3.4,3-4.7c3.2-3.3,9-2.5,10.9-2.2"/>
	<path class="st8" d="M641.5,274.1c-1.1,3.4,8.5,12.3,16.4,6.4c2.3-1.7,4.4-3.8,6.1-6.4"/>
</g>
<g>
	
		<rect x="387.2" y="46.8" transform="matrix(-0.9735 -0.2288 0.2288 -0.9735 813.7556 254.2447)" class="st11" width="68.8" height="66.3"/>
	<path class="st12" d="M395.7,39.8c2.9,0.4,5.7,0.8,8.5,1.2l8.5,1.3c2.8,0.4,5.7,0.9,8.5,1.4l8.5,1.5c5.7,1,11.3,2,16.9,3.1l8.5,1.6
		l8.4,1.7l3.7,0.7l-0.8,4c-1.1,5.4-2.2,10.8-3.3,16.2c-1.1,5.4-2.3,10.8-3.5,16.2l-3.6,16.2l-3.7,16.2l-1.1,4.9l-4.9-1.2l-16.7-4
		c-5.6-1.4-11.1-2.7-16.7-4.1s-11.1-2.8-16.7-4.3c-5.6-1.4-11.1-2.9-16.6-4.4l-3.9-1l1-3.6l2.2-8l2.2-8l2.3-8l2.3-8l2.4-8
		c0.8-2.7,1.6-5.3,2.4-7.9l2.5-7.9C394,45.1,394.8,42.4,395.7,39.8z M395.7,39.8c-0.4,2.8-0.8,5.5-1.2,8.2l-1.3,8.2
		c-0.4,2.7-0.9,5.5-1.4,8.2l-1.4,8.2l-1.5,8.2l-1.5,8.2l-1.6,8.1l-1.6,8.1l-2.9-4.7c5.6,1.1,11.2,2.3,16.9,3.5
		c5.6,1.2,11.2,2.4,16.8,3.6c5.6,1.2,11.2,2.5,16.8,3.7l16.8,3.9l-6,3.7l3.9-16.1l4-16.1c1.4-5.4,2.7-10.7,4.1-16.1s2.8-10.7,4.2-16
		l2.9,4.8l-8.3-2.3l-8.3-2.3c-5.5-1.5-11-3.1-16.6-4.7l-8.3-2.5c-2.7-0.8-5.5-1.6-8.2-2.5l-8.2-2.6
		C401.2,41.6,398.4,40.8,395.7,39.8z"/>
</g>
<path class="st13" d="M448,118.1c-7.4,18.8-6.5,40.7,2.4,58.9c18.4,37.4,67.3,56.7,75.7,97.5c2,9.8,1.4,20,2.4,29.9
	c1,10,4,20.4,11.6,26.9"/>
<g>
	
		<rect x="226.3" y="67" transform="matrix(0.8032 0.5957 -0.5957 0.8032 103.6243 -131.4459)" class="st14" width="48.9" height="48.3"/>
	<path class="st15" d="M255.8,125.5c-1.9-0.8-3.7-1.8-5.6-2.7c-1.8-1-3.6-2-5.4-3c-3.6-2-7-4.2-10.5-6.4c-3.4-2.2-6.8-4.5-10.1-6.9
		c-1.7-1.2-3.3-2.4-4.9-3.6c-1.6-1.2-3.2-2.5-4.7-3.9l-3-2.6l2.3-2.6c2.6-3.1,5.5-6,8.2-8.9c2.8-2.9,5.5-5.9,8-9.1
		c1.3-1.6,2.5-3.2,3.7-4.8c1.2-1.6,2.3-3.3,3.5-4.9c1.1-1.7,2.2-3.4,3.3-5.1c1.1-1.7,2.1-3.5,3.2-5.2l1.1-1.9l2.3,1.4l5.3,3.1
		c1.8,1,3.5,2.1,5.2,3.2c3.5,2.2,6.8,4.5,10.2,6.8c3.4,2.3,6.8,4.6,10.1,6.9c1.7,1.2,3.3,2.4,5,3.6l2.5,1.8c0.8,0.6,1.6,1.2,2.4,1.8
		l3.9,3l-2.9,3.7c-1.2,1.6-2.5,3.2-3.7,4.7c-1.3,1.6-2.5,3.1-3.8,4.7c-2.6,3.1-5.2,6.2-7.9,9.2c-1.3,1.5-2.7,3-4.1,4.5
		c-1.3,1.5-2.7,3-4.1,4.4c-1.4,1.5-2.8,2.9-4.2,4.4c-1.4,1.4-2.9,2.9-4.4,4.2l-0.3,0.3L255.8,125.5z M255.9,124.3
		c0.8-1.7,1.7-3.3,2.5-5c1-1.8,1.9-3.6,2.9-5.3c1-1.8,2-3.5,3.1-5.3c1-1.7,2.1-3.5,3.1-5.2c2.1-3.4,4.3-6.8,6.5-10.2
		c1.1-1.7,2.2-3.3,3.4-5c1.1-1.7,2.3-3.3,3.5-4.9l1,6.7c-0.8-0.6-1.7-1.2-2.5-1.8l-2.5-1.8c-1.6-1.2-3.2-2.5-4.8-3.7
		c-3.2-2.5-6.4-5.1-9.5-7.7c-3.2-2.6-6.4-5.1-9.4-7.8c-1.5-1.3-3.1-2.7-4.6-4.1l-4.5-4.1l3.4-0.5c-1.3,1.5-2.7,3-4,4.5
		s-2.6,3-3.9,4.6c-1.3,1.6-2.5,3.1-3.7,4.8c-1.2,1.6-2.4,3.2-3.5,4.9c-2.3,3.3-4.4,6.8-6.4,10.3s-4,7.1-6.2,10.5L219,93
		c1.7,1.1,3.4,2.2,5.1,3.4c1.7,1.2,3.3,2.4,4.9,3.7c3.2,2.5,6.4,5,9.5,7.7c3.1,2.6,6.2,5.3,9.2,8.2c1.5,1.4,3,2.8,4.4,4.3
		C253.4,121.5,254.7,122.9,255.9,124.3z"/>
</g>
<path class="st13" d="M256.1,123.3c-10.7,11.5-11.8,29.3-7.9,44.5s11.8,29.1,17.3,43.8s8.4,31.6,2,45.9
	c-4.1,9.1-11.5,16.3-17.2,24.5s-9.8,18.8-6.2,28.1c2,5.2,6.4,9.8,6,15.3c-0.2,3-1.8,5.7-2.5,8.6c-1.6,6.2,0.4,12.9-1.1,19.1
	c-3.8,15.8-27.7,20.8-30,36.8"/>
</svg>
