<?xml version="1.0" encoding="utf-8"?>
<!-- Generator: Adobe Illustrator 19.1.0, SVG Export Plug-In . SVG Version: 6.00 Build 0)  -->
<svg version="1.1" id="Layer_1" xmlns="http://www.w3.org/2000/svg" xmlns:xlink="http://www.w3.org/1999/xlink" x="0px" y="0px"
	 viewBox="0 0 960 560" style="enable-background:new 0 0 960 560;" xml:space="preserve">
<style type="text/css">
	.st0{fill:#FFFFFF;stroke:#000000;stroke-miterlimit:10;}
	.st1{fill:none;stroke:#000000;stroke-miterlimit:10;}
</style>
<path class="st0" d="M247,247c0-0.1,0-0.1,0-0.2l-0.5,12.6C247,255.3,247.5,251.1,247,247z"/>
<path class="st0" d="M245.6,281.7l0.8-22.2C245.3,267,243.5,274.5,245.6,281.7z"/>
<path class="st0" d="M250.8,138.6c-0.1,0.1-0.2,0.1-0.2,0.2c-0.5,0.9-1.2,1.5-2,1.7c-5.7,6.1-6.8,17.7-6.2,27.6
	c0.7,11.3,3.2,22.5,2,33.7c-0.9,8.6-4,17-2.9,25.5c0.9,6.7,4.5,12.8,5.4,19.6"/>
<path class="st0" d="M262.9,78.4"/>
<path class="st0" d="M289.6,77.6L289.6,77.6"/>
<path class="st0" d="M292.7,119.8v-41"/>
<path class="st0" d="M277.8,136.2"/>
<path class="st0" d="M251.7,138"/>
<path class="st0" d="M241.5,79v42.9c0.7,0.5,1.2,1.3,1.5,2.4c1,3.7,2.2,6.6,5.5,7.8c2.6,1,3.2,3.9,2.3,6.2v0.3
	c0.3-0.2,0.5-0.3,0.8-0.5"/>
<path class="st1" d="M286.7,151.3c-2.4,8.7-8.5,15.8-9.3,25c-0.8,9.4,5.2,16.7,8.4,24.8c4.1,10.2,0.1,18.5-1.8,28.7
	c-2,10.9,4.6,20.2,3.6,31s-7.3,21.8-4.1,32.7"/>
<path class="st1" d="M245.5,291.5c5.4,1,10.1-6,15.5-4.9c1.5,0.3,2.9,1.3,4.3,1.9c2.1,0.9,4.3,1,6.6,1.2c4.1,0.3,8.3,0.6,12.4,0.9"
	/>
<path class="st1" d="M244,157.4c-4.4-0.7-9.4-1.2-12.7,2.1c-1.3,1.3-2.1,3.1-3.1,4.7c-1.7,2.9-3.8,5.5-5.9,8
	c-4.1,4.9-8.3,9.9-13.4,13.2c-5.2,3.4-11.5,5-17.1,2.9c-6.7-2.6-11.1-9.9-16.9-14.5c-2.1-1.7-4.6-3.1-7.1-2.9s-5.1,2.4-5.2,5.3
	c-1.2,0.1-2.2,0.1-3.4,0.2"/>
<path class="st1" d="M282,159.1c12.1,12.5,31.8,14.4,45.6,4.4c6.4-4.6,11.5-11.4,18.2-15.2c9.1-5.2,19.8-4.7,30-4
	c3.1-4.6,7.2-8.7,11.2-12.2"/>
<path class="st1" d="M271.1,135.7c1.3,1.8,3,3.3,4.7,4.6"/>
<path class="st1" d="M271,135.3c1.2,0.3,2.3-0.4,3.3-1.1c3.6-2.4,6.9-5.2,10.2-8c1.6-1.5,3.2-3.1,4.8-4.7c1.6-1.7,2.1-2.8,2.8-5.1
	c0.2-0.7,0.5-1.5,0.2-2.3"/>
<path class="st1" d="M229.5,37.1c-0.2,3.5-0.4,7.3,1.5,10c1.7,2.4,4.8,3.3,6.6,5.7c2,2.4,2.4,6,2.3,9.4c-0.1,3.3-0.5,6.7,0.2,10
	c0.5,2.4,1.9,5.2,0.8,7.4"/>
<path class="st1" d="M323.6,34.3c-2.3-0.2-4.7-0.3-6.9,0.7c-2.9,1.3-4.8,4.5-6.3,7.5c-0.7,1.4-1.4,2.8-1.7,4.4
	c-0.3,1.4-0.3,2.9-0.3,4.4c-0.2,5-1.1,9.9-2.8,14.5c-0.5,1.4-1.1,2.9-2,4c-1.1,1.3-2.5,2.2-3.9,3.2c-1.3,1-2.5,2.3-3.4,3.7
	c-0.5,0.7-0.9,1.4-1.5,1.9s-1.5,0.7-2.2,0.3"/>
<path class="st1" d="M233.1,31.7c-0.5,2.5,0.7,5.2,2.4,6.8c1.7,1.7,3.9,2.5,6,3.5c2.2,0.9,4.3,1.8,5.9,3.6c2,2.1,3.1,5.2,3.2,8.4
	s-0.4,6.3-1.3,9.3c-0.3,1-0.7,2.2-0.5,3.2c0.1,1,0.6,2,1,3c0.8,2,1.2,4.1,1.2,6.3"/>
<path class="st1" d="M267.7,31c-0.2,4.6-0.4,9.3-0.5,13.9c0,0.8,0,1.7,0.3,2.4c0.3,0.8,0.9,1.4,1.5,1.9c1.1,1,2.2,2.1,2.9,3.4
	c0.8,1.3,1.2,3,1,4.5c-0.2,1-0.6,1.9-1.1,2.8c-1.5,2.8-3,5.4-4.8,8c-2.3,3.3-4.9,6.5-6.4,10.4"/>
<path class="st1" d="M278.4,78.7c-0.3-4.5-0.6-9.5,1.7-13.3c0.8-1.4,2.1-2.5,3-3.9c2.2-3,3.1-6.9,3.3-10.8c0.2-3.8-0.4-7.7-0.9-11.5
	c-0.2-1.6-0.5-3.1-0.2-4.6s1.2-3.1,2.5-3.5"/>
<path class="st1" d="M284,79.1c0.2-6.3,1.5-13,5.7-17.1c1.3-1.2,2.8-2.2,4-3.5c1.8-1.9,2.8-4.5,4.1-6.9c1.2-2.4,2.8-4.5,3.2-7.3
	c0.3-1.9,0.1-3.8,0.2-5.8c0.2-2.4,1.1-4.8,2.9-6.2c3.5-2.9,8.6-0.7,12.5-2.8"/>
<path class="st1" d="M275.7,140.5c3.2,1.2,5.5,4.4,7.2,7.7c0.5,1,1,1.9,1.3,3c1,3.1,0.4,6.9-1.5,9.4"/>
<ellipse class="st1" cx="253.3" cy="97.8" rx="5.2" ry="9.5"/>
<ellipse class="st1" cx="280.7" cy="98.1" rx="4.9" ry="9.8"/>
<path class="st1" d="M285.2,155.1c7.3,6.1,16.7,8.7,25.7,7.9s17.7-4.8,25.2-10.7c5.4-4.2,10.3-9.4,16.4-12.2s14-2.3,18.1,3.7
	c3.6-5.1,8.2-9.5,13.7-11.5c1.2-0.4,2.9-1.2,2.7-2.7"/>
<path class="st1" d="M159.6,176.8c-4.9-2.5-10.6-4.4-16-4.9c2.7-0.8,5.4-1,8-0.3c3.2,1,5.1,3.3,8.6,1.5c4-2.1,6.1-4.4,11.1-3.8
	c5.7,0.7,11.3,2.8,16.2,6.3c2.8,2,5.6,4.5,9,4.3c1.9-0.1,3.6-1.1,5.2-2.3c6.9-5.1,11.9-12.9,18.2-19s15.1-10.5,22.7-6.9"/>
<path class="st1" d="M269.8,73.4c3.4-12.3,4.9-25.4,4.6-38.2c0-1-0.1-2.2,0.3-3.1c0.8-1.8,2.8-2.4,4.5-3s3.6-1.9,3.5-3.9"/>
<path class="st1" d="M255.2,75.4c-0.5-8.6-0.8-18,3.9-24.8c0.5-0.6,0.9-1.3,0.8-2.1c-0.1-0.6-0.5-1-0.9-1.5
	c-4.1-4.4-7.5-9.6-10-15.3c-0.9-2.1-1.7-4.7-0.5-6.6"/>
<path class="st1" d="M252.7,115.7c4.4,1.4,7.3,6.6,11.6,8c2.7,0.9,5.6,0.2,8.1-1.3s4.5-3.8,6.3-6.3"/>
</svg>
