<?xml version="1.0" encoding="utf-8"?>
<!-- Generator: Adobe Illustrator 19.1.0, SVG Export Plug-In . SVG Version: 6.00 Build 0)  -->
<svg version="1.1" id="Layer_1" xmlns="http://www.w3.org/2000/svg" xmlns:xlink="http://www.w3.org/1999/xlink" x="0px" y="0px"
	 viewBox="0 0 960 560" style="enable-background:new 0 0 960 560;" xml:space="preserve">
<style type="text/css">
	.st0{fill:none;stroke:#000000;stroke-miterlimit:10;}
</style>
<path class="st0" d="M0.8,458.2c85.7-15.7,172.1-31.5,259.2-29.5c59.1,1.3,117.6,10.9,176.5,16c121.9,10.7,245.5,2.6,365-23.9
	c52.3-11.6,108.8-26.4,157.7-4.6"/>
<g>
	<g>
		<path class="st0" d="M168.5,503.5"/>
	</g>
</g>
<g>
	<g>
		<path class="st0" d="M224.2,499"/>
	</g>
</g>
<g>
	<line class="st0" x1="85" y1="319" x2="180" y2="319"/>
	<path class="st0" d="M180,411.5H85V319c-3.7-32.1,19.8-58.7,45-59.9c26.6-1.2,53.6,25.9,49.9,59.9C180,349.8,180,380.7,180,411.5z"
		/>
	<path class="st0" d="M212,313.8"/>
	<polygon class="st0" points="207.9,372.3 195.4,376 179.4,320.1 191.8,316.4 	"/>
	<path class="st0" d="M73.7,387.5h8.2c1.7,0,3.2-1.4,3.2-3.2v-62.1c0-1.7-1.4-3.2-3.2-3.2h-8.2c-1.7,0-3.2,1.4-3.2,3.2v62.1
		C70.5,386.1,71.9,387.5,73.7,387.5z"/>
	<path class="st0" d="M199.7,374.7c-3.5,14.2,0,21.5,0,21.5l18-3.6l6.5-7.1l-13.1-9.5l-3.2-3.7"/>
	<line class="st0" x1="73.7" y1="387.5" x2="63.3" y2="396.2"/>
	<line class="st0" x1="63.3" y1="396.2" x2="77.7" y2="402.1"/>
	<line class="st0" x1="77.7" y1="402.1" x2="81.9" y2="387.5"/>
	<ellipse class="st0" cx="108.6" cy="426.5" rx="13.6" ry="14.9"/>
	<ellipse class="st0" cx="160.3" cy="426.5" rx="13.6" ry="14.9"/>
	<ellipse class="st0" cx="113.6" cy="286.4" rx="5" ry="7.7"/>
	<ellipse class="st0" cx="145.6" cy="286.4" rx="5.4" ry="7.7"/>
</g>
<path class="st0" d="M485,142c1.5,1.9-15,33.1-43.5,31c-20.1-1.5-37.5-18.6-38.5-39c-1.5-29.2,31.4-45.1,34-43
	c1.9,1.6-10.8,14-10,34c0.2,4.6,0.7,13.2,7,20c5.8,6.3,13.5,7.6,16,8C468.9,156,483.8,140.5,485,142z"/>
<path class="st0" d="M503,83"/>
<path class="st0" d="M494,106"/>
<path class="st0" d="M538,101"/>
<path class="st0" d="M539,140"/>
<path class="st0" d="M505,71c-19.6,27.4-14.4,60.9,4,74c13.8,9.9,34.8,8.1,49.6-0.3c12-6.8,18-16.9,20.4-21.7
	c-15.2,14-37.1,17.1-54,8C504.9,120.2,495.6,94.2,505,71z"/>
<path class="st0" d="M680,69"/>
<path class="st0" d="M599,116"/>
<path class="st0" d="M571,77"/>
<path class="st0" d="M588,89"/>
<path class="st0" d="M302,133"/>
</svg>
