<?xml version="1.0" encoding="utf-8"?>
<!-- Generator: Adobe Illustrator 19.1.0, SVG Export Plug-In . SVG Version: 6.00 Build 0)  -->
<svg version="1.1" id="Layer_1" xmlns="http://www.w3.org/2000/svg" xmlns:xlink="http://www.w3.org/1999/xlink" x="0px" y="0px"
	 viewBox="0 0 960 560" style="enable-background:new 0 0 960 560;" xml:space="preserve">
<style type="text/css">
	.st0{fill:none;stroke:#000000;stroke-miterlimit:10;}
	.st1{fill:#A9FF96;stroke:#000000;stroke-miterlimit:10;}
	.st2{fill:#B1F1FF;stroke:#000000;stroke-miterlimit:10;}
	.st3{fill:#AAADAD;stroke:#000000;stroke-miterlimit:10;}
	.st4{fill:#9A9E9E;stroke:#000000;stroke-miterlimit:10;}
	.st5{stroke:#000000;stroke-miterlimit:10;}
	.st6{fill:#F5FF76;stroke:#F5FF76;stroke-miterlimit:10;}
	.st7{fill:#FDFFE3;stroke:#FFFFFF;stroke-width:0.25;stroke-miterlimit:10;}
</style>
<path class="st0" d="M742.9,65.6C676.5,48.6,621.4,50.2,581,56C311.1,95.1,185,403.2,173.9,431.6"/>
<path class="st1" d="M959.2,560H0.8V458.2c85.7-15.7,172.1-31.5,259.2-29.5c59.1,1.3,117.6,10.9,176.5,16
	c121.9,10.7,245.5,2.6,365-23.9c52.3-11.6,108.8-26.4,157.7-4.6"/>
<path class="st2" d="M959.2,0H0.8v458.2l0,0c85.7-15.7,172.1-31.5,259.2-29.5c59.1,1.3,117.6,10.9,176.5,16
	c121.9,10.7,245.5,2.6,365-23.9c52.3-11.6,108.8-26.4,157.7-4.6"/>
<g>
	<path class="st3" d="M180,411.5H85V319c-3.7-32.1,19.8-58.7,45-59.9c26.6-1.2,53.6,25.9,49.9,59.9C180,349.8,180,380.7,180,411.5z"
		/>
	<polygon class="st3" points="207.9,372.3 195.4,376 179.4,320.1 191.8,316.4 	"/>
	<path class="st3" d="M73.7,387.5h8.2c1.7,0,3.2-1.4,3.2-3.2v-62.1c0-1.7-1.4-3.2-3.2-3.2h-8.2c-1.7,0-3.2,1.4-3.2,3.2v62.1
		C70.5,386.1,71.9,387.5,73.7,387.5z"/>
	<path class="st3" d="M199.7,374.7c-3.5,14.2,0,21.5,0,21.5l18-3.6l6.5-7.1l-13.1-9.5l-3.2-3.7"/>
	<polyline class="st4" points="81.9,387.5 77.7,402.1 63.3,396.2 73.7,387.5 	"/>
	<ellipse class="st3" cx="108.6" cy="426.5" rx="13.6" ry="14.9"/>
	<ellipse class="st3" cx="160.3" cy="426.5" rx="13.6" ry="14.9"/>
	<ellipse class="st5" cx="113.6" cy="286.4" rx="5" ry="7.7"/>
	<ellipse class="st5" cx="145.6" cy="286.4" rx="5.4" ry="7.7"/>
	<line class="st0" x1="85" y1="319" x2="179.4" y2="320.1"/>
</g>
<ellipse class="st6" cx="799" cy="80" rx="56" ry="51"/>
<polygon class="st7" points="339.2,35.5 331.9,43.2 334,53.6 324.5,49 315.3,54.3 316.7,43.8 308.8,36.6 319.3,34.7 323.6,25.1 
	328.7,34.4 "/>
</svg>
