<?xml version="1.0" encoding="utf-8"?>
<!-- Generator: Adobe Illustrator 19.1.0, SVG Export Plug-In . SVG Version: 6.00 Build 0)  -->
<svg version="1.1" id="Layer_1" xmlns="http://www.w3.org/2000/svg" xmlns:xlink="http://www.w3.org/1999/xlink" x="0px" y="0px"
	 viewBox="0 0 960 560" style="enable-background:new 0 0 960 560;" xml:space="preserve">
<style type="text/css">
	.st0{fill:none;stroke:#000000;stroke-miterlimit:10;}
	.st1{fill:#FFFFFF;stroke:#000000;stroke-miterlimit:10;}
</style>
<path class="st0" d="M0.8,458.2c85.7-15.7,172.1-31.5,259.2-29.5c59.1,1.3,117.6,10.9,176.5,16c121.9,10.7,245.5,2.6,365-23.9
	c52.3-11.6,108.8-26.4,157.7-4.6"/>
<g>
	<g>
		<path class="st0" d="M168.5,503.5"/>
	</g>
</g>
<g>
	<g>
		<path class="st0" d="M224.2,499"/>
	</g>
</g>
<g>
	<line class="st0" x1="85" y1="319" x2="180" y2="319"/>
	<path class="st0" d="M180,411.5H85V319c-3.7-32.1,19.8-58.7,45-59.9c26.6-1.2,53.6,25.9,49.9,59.9C180,349.8,180,380.7,180,411.5z"
		/>
	<path class="st0" d="M212,313.8"/>
	<polygon class="st0" points="207.9,372.3 195.4,376 179.4,320.1 191.8,316.4 	"/>
	<path class="st0" d="M73.7,387.5h8.2c1.7,0,3.2-1.4,3.2-3.2v-62.1c0-1.7-1.4-3.2-3.2-3.2h-8.2c-1.7,0-3.2,1.4-3.2,3.2v62.1
		C70.5,386.1,71.9,387.5,73.7,387.5z"/>
	<path class="st0" d="M199.7,374.7c-3.5,14.2,0,21.5,0,21.5l18-3.6l6.5-7.1l-13.1-9.5l-3.2-3.7"/>
	<line class="st0" x1="73.7" y1="387.5" x2="63.3" y2="396.2"/>
	<line class="st0" x1="63.3" y1="396.2" x2="77.7" y2="402.1"/>
	<line class="st0" x1="77.7" y1="402.1" x2="81.9" y2="387.5"/>
	<ellipse class="st0" cx="108.6" cy="426.5" rx="13.6" ry="14.9"/>
	<ellipse class="st0" cx="160.3" cy="426.5" rx="13.6" ry="14.9"/>
	<ellipse class="st0" cx="113.6" cy="286.4" rx="5" ry="7.7"/>
	<ellipse class="st0" cx="145.6" cy="286.4" rx="5.4" ry="7.7"/>
</g>
<g>
	<path class="st1" d="M633.3,406.1c0-0.1,0-0.1,0-0.2l-0.5,12.7C633.3,414.5,633.7,410.2,633.3,406.1z"/>
	<path class="st1" d="M631.9,441.1l0.8-22.4C631.6,426.3,629.9,433.8,631.9,441.1z"/>
	<path class="st1" d="M636.9,296.8c-0.1,0.1-0.2,0.1-0.2,0.2c-0.5,0.9-1.2,1.5-1.9,1.7c-5.5,6.2-6.6,17.9-6,27.8
		c0.7,11.4,3.1,22.7,1.9,34c-0.9,8.7-3.9,17.1-2.8,25.7c0.9,6.8,4.4,12.9,5.2,19.8"/>
	<path class="st1" d="M648.7,236.1"/>
	<path class="st1" d="M674.6,235.3L674.6,235.3"/>
	<path class="st1" d="M677.6,277.8v-41.3"/>
	<path class="st1" d="M663.1,294.4"/>
	<path class="st1" d="M637.8,296.2"/>
	<path class="st1" d="M627.9,236.7v43.3c0.7,0.5,1.2,1.3,1.5,2.4c1,3.7,2.1,6.7,5.3,7.9c2.5,1,3.1,3.9,2.2,6.3v0.3
		c0.3-0.2,0.5-0.3,0.8-0.5"/>
	<path class="st0" d="M671.8,309.6c-2.3,8.8-8.2,15.9-9,25.2c-0.8,9.5,5,16.8,8.1,25c4,10.3,0.1,18.7-1.7,28.9
		c-1.9,11,4.5,20.4,3.5,31.3s-7.1,22-4,33"/>
	<path class="st0" d="M630.3,315.7c-4.3-0.7-9.1-1.2-12.3,2.1c-1.3,1.3-2,3.1-3,4.7c-1.6,2.9-3.7,5.5-5.7,8.1c-4,4.9-8,10-13,13.3
		c-5,3.4-11.2,5-16.6,2.9c-6.5-2.6-10.8-10-16.4-14.6c-2-1.7-4.5-3.1-6.9-2.9s-4.9,2.4-5,5.3c-1.2,0.1-2.1,0.1-3.3,0.2"/>
	<path class="st0" d="M667.2,317.5c11.7,12.6,30.8,14.5,44.2,4.4c6.2-4.6,11.2-11.5,17.6-15.3c8.8-5.2,19.2-4.7,29.1-4
		c3-4.6,7-8.8,10.9-12.3"/>
	<path class="st0" d="M656.6,293.9c1.3,1.8,2.9,3.3,4.6,4.6"/>
	<path class="st0" d="M656.5,293.5c1.2,0.3,2.2-0.4,3.2-1.1c3.5-2.4,6.7-5.2,9.9-8.1c1.6-1.5,3.1-3.1,4.7-4.7c1.6-1.7,2-2.8,2.7-5.1
		c0.2-0.7,0.5-1.5,0.2-2.3"/>
	<path class="st0" d="M616.3,194.4c-0.2,3.5-0.4,7.4,1.5,10.1c1.6,2.4,4.7,3.3,6.4,5.7c1.9,2.4,2.3,6.1,2.2,9.5
		c-0.1,3.3-0.5,6.8,0.2,10.1c0.5,2.4,1.8,5.2,0.8,7.5"/>
	<path class="st0" d="M707.5,191.6c-2.2-0.2-4.6-0.3-6.7,0.7c-2.8,1.3-4.7,4.5-6.1,7.6c-0.7,1.4-1.4,2.8-1.6,4.4
		c-0.3,1.4-0.3,2.9-0.3,4.4c-0.2,5-1.1,10-2.7,14.6c-0.5,1.4-1.1,2.9-1.9,4c-1.1,1.3-2.4,2.2-3.8,3.2c-1.3,1-2.4,2.3-3.3,3.7
		c-0.5,0.7-0.9,1.4-1.5,1.9c-0.6,0.5-1.5,0.7-2.1,0.3"/>
	<path class="st0" d="M619.8,189c-0.5,2.5,0.7,5.2,2.3,6.9c1.6,1.7,3.8,2.5,5.8,3.5c2.1,0.9,4.2,1.8,5.7,3.6c1.9,2.1,3,5.2,3.1,8.5
		c0.1,3.2-0.4,6.4-1.3,9.4c-0.3,1-0.7,2.2-0.5,3.2c0.1,1,0.6,2,1,3c0.8,2,1.2,4.1,1.2,6.4"/>
	<path class="st0" d="M653.3,188.3c-0.2,4.6-0.4,9.4-0.5,14c0,0.8,0,1.7,0.3,2.4c0.3,0.8,0.9,1.4,1.5,1.9c1.1,1,2.1,2.1,2.8,3.4
		c0.8,1.3,1.2,3,1,4.5c-0.2,1-0.6,1.9-1.1,2.8c-1.5,2.8-2.9,5.4-4.7,8.1c-2.2,3.3-4.8,6.6-6.2,10.5"/>
	<path class="st0" d="M663.7,236.4c-0.3-4.5-0.6-9.6,1.6-13.4c0.8-1.4,2-2.5,2.9-3.9c2.1-3,3-7,3.2-10.9c0.2-3.8-0.4-7.8-0.9-11.6
		c-0.2-1.6-0.5-3.1-0.2-4.6c0.3-1.5,1.2-3.1,2.4-3.5"/>
	<path class="st0" d="M669.1,236.8c0.2-6.4,1.5-13.1,5.5-17.2c1.3-1.2,2.7-2.2,3.9-3.5c1.7-1.9,2.7-4.5,4-7c1.2-2.4,2.7-4.5,3.1-7.4
		c0.3-1.9,0.1-3.8,0.2-5.8c0.2-2.4,1.1-4.8,2.8-6.3c3.4-2.9,8.3-0.7,12.1-2.8"/>
	<path class="st0" d="M661.1,298.7c3.1,1.2,5.3,4.4,7,7.8c0.5,1,1,1.9,1.3,3c1,3.1,0.4,7-1.5,9.5"/>
	<ellipse class="st0" cx="639.4" cy="255.6" rx="5" ry="9.6"/>
	<ellipse class="st0" cx="665.9" cy="255.9" rx="4.8" ry="9.9"/>
	<path class="st0" d="M670.3,313.4c7.1,6.2,16.2,8.8,24.9,8c8.7-0.8,17.2-4.8,24.4-10.8c5.2-4.2,10-9.5,15.9-12.3
		c5.9-2.8,13.6-2.3,17.5,3.7c3.5-5.1,8-9.6,13.3-11.6c1.2-0.4,2.8-1.2,2.6-2.7"/>
	<path class="st0" d="M548.5,335.3c-4.8-2.5-10.3-4.4-15.5-4.9c2.6-0.8,5.2-1,7.8-0.3c3.1,1,4.9,3.3,8.3,1.5
		c3.9-2.1,5.9-4.4,10.8-3.8c5.5,0.7,11,2.8,15.7,6.4c2.7,2,5.4,4.5,8.7,4.3c1.8-0.1,3.5-1.1,5-2.3c6.7-5.1,11.5-13,17.6-19.2
		c6.1-6.2,14.6-10.6,22-7"/>
	<path class="st0" d="M655.4,231c3.3-12.4,4.8-25.6,4.5-38.5c0-1-0.1-2.2,0.3-3.1c0.8-1.8,2.7-2.4,4.4-3c1.6-0.6,3.5-1.9,3.4-3.9"/>
	<path class="st0" d="M641.2,233c-0.5-8.7-0.8-18.2,3.8-25c0.5-0.6,0.9-1.3,0.8-2.1c-0.1-0.6-0.5-1-0.9-1.5c-4-4.4-7.3-9.7-9.7-15.4
		c-0.9-2.1-1.6-4.7-0.5-6.7"/>
	<path class="st0" d="M638.8,273.7c4.3,1.4,7.1,6.7,11.2,8.1c2.6,0.9,5.4,0.2,7.9-1.3s4.4-3.8,6.1-6.4"/>
</g>
</svg>
