<?xml version="1.0" encoding="utf-8"?>
<!-- Generator: Adobe Illustrator 19.1.0, SVG Export Plug-In . SVG Version: 6.00 Build 0)  -->
<svg version="1.1" id="Layer_1" xmlns="http://www.w3.org/2000/svg" xmlns:xlink="http://www.w3.org/1999/xlink" x="0px" y="0px"
	 viewBox="0 0 960 560" style="enable-background:new 0 0 960 560;" xml:space="preserve">
<style type="text/css">
	.st0{fill:none;stroke:#000000;stroke-miterlimit:10;}
</style>
<line class="st0" x1="220" y1="142.5" x2="337" y2="142.5"/>
<path class="st0" d="M337,254.8H220V142.5c-4.6-38.9,24.4-71.2,55.5-72.7c32.8-1.5,66,31.4,61.5,72.7C337,179.9,337,217.4,337,254.8
	z"/>
<path class="st0" d="M376.4,136.2"/>
<rect x="345.9" y="140.1" transform="matrix(-0.9599 0.2803 -0.2803 -0.9599 742.7053 244.729)" class="st0" width="16" height="70.7"/>
<path class="st0" d="M206,225.6h10.1c2.1,0,3.9-1.7,3.9-3.9v-75.3c0-2.1-1.7-3.9-3.9-3.9H206c-2.1,0-3.9,1.7-3.9,3.9v75.3
	C202.1,223.9,203.8,225.6,206,225.6z"/>
<path class="st0" d="M361.3,210.1c-4.3,17.2,0,26.1,0,26.1l22.2-4.4l8-8.6l-16.1-11.5l-4-4.5"/>
<line class="st0" x1="206" y1="225.6" x2="193.2" y2="236.2"/>
<line class="st0" x1="193.2" y1="236.2" x2="211" y2="243.3"/>
<line class="st0" x1="211" y1="243.3" x2="216.1" y2="225.6"/>
<ellipse class="st0" cx="249" cy="272.9" rx="16.8" ry="18.1"/>
<ellipse class="st0" cx="312.7" cy="272.9" rx="16.8" ry="18.1"/>
<ellipse class="st0" cx="255.2" cy="103" rx="6.2" ry="9.3"/>
<ellipse class="st0" cx="294.6" cy="103" rx="6.6" ry="9.3"/>
</svg>
